<svg xmlns="http://www.w3.org/2000/svg" viewBox="0 0 531.9 73.51"><defs><style>.cls-1,.cls-2,.cls-4,.cls-5,.cls-6,.cls-8,.cls-9{isolation:isolate;}.cls-2{font-size:13.05px;}.cls-2,.cls-9{fill:#009de0;}.cls-2,.cls-4{font-family:Oxygen-Bold, Oxygen;}.cls-2,.cls-4,.cls-8{font-weight:700;}.cls-3{letter-spacing:0em;}.cls-4{font-size:26.09px;fill:#0d2c54;}.cls-5,.cls-8{font-size:20.38px;}.cls-10,.cls-5{fill:#f6511d;}.cls-5{font-family:CharisSIL, Charis SIL;}.cls-6{font-size:24.87px;font-family:CharisSIL-Italic, Charis SIL;font-style:italic;}.cls-6,.cls-7,.cls-8{fill:#ffb400;}.cls-8{font-family:CharisSIL-Bold, Charis SIL;}.cls-9{font-size:24.05px;font-family:Oxygen-Regular, Oxygen;}</style></defs><g id="Layer_2" data-name="Layer 2"><g id="Layer_1-2" data-name="Layer 1"><g id="Group_18" data-name="Group 18"><g id="Belly-laughing_Funny" data-name="Belly-laughing Funny"><g id="Belly-laughing_Funny-2" data-name="Belly-laughing Funny-2" class="cls-1"><text class="cls-2" transform="translate(290 59.02)">Belly-laughing Fun<tspan class="cls-3" x="116.77" y="0">n</tspan><tspan x="124.73" y="0">y</tspan></text></g></g><g id="Laid_Back" data-name="Laid Back"><g id="Laid_Back-2" data-name="Laid Back-2" class="cls-1"><text class="cls-4" transform="translate(0 29.87)">Laid Back</text></g></g><g id="Thought_Provoking" data-name="Thought Provoking"><g id="Thought_Provoking-2" data-name="Thought Provoking-2" class="cls-1"><text class="cls-5" transform="translate(80.58 59.02)">Thought Provoking</text></g></g><g id="Soft"><g id="Soft-2" class="cls-1"><text class="cls-6" transform="translate(27.86 60.25)">Soft</text></g></g><g id="Light_Hearted" data-name="Light Hearted"><g id="Light_Hearted-2" data-name="Light Hearted-2" class="cls-1"><g class="cls-1"><path class="cls-7" d="M250.24,41.49V26.69h1V40.62h6.41v.87Z"/><path class="cls-7" d="M261.26,30.49a.63.63,0,0,1-.33-.09.64.64,0,0,1-.24-.25.63.63,0,0,1-.09-.33.6.6,0,0,1,.09-.33.69.69,0,0,1,.24-.24.63.63,0,0,1,.33-.09.64.64,0,0,1,.34.09.69.69,0,0,1,.24.24.6.6,0,0,1,.09.33.63.63,0,0,1-.09.33.65.65,0,0,1-.58.34Zm-.47,11V32.31h.95v9.18Z"/><path class="cls-7" d="M269.72,46.42a5.68,5.68,0,0,1-2.9-.68,4.24,4.24,0,0,1-1.77-2l.82-.36A3.52,3.52,0,0,0,267.35,45a4.66,4.66,0,0,0,2.38.61,4.36,4.36,0,0,0,2-.45,3.26,3.26,0,0,0,1.41-1.29,3.77,3.77,0,0,0,.52-2V39.37A4.33,4.33,0,0,1,272,41.14a4.43,4.43,0,0,1-2.33.64,4.38,4.38,0,0,1-2.33-.63,4.68,4.68,0,0,1-1.65-1.74,5.57,5.57,0,0,1,0-5,4.55,4.55,0,0,1,1.64-1.73,4.45,4.45,0,0,1,2.35-.63,4.32,4.32,0,0,1,2.33.64,4.25,4.25,0,0,1,1.61,1.75v-2.1h.95v9.43a5,5,0,0,1-.61,2.6,3.8,3.8,0,0,1-1.71,1.56A5.9,5.9,0,0,1,269.72,46.42Zm.18-5.48a3.79,3.79,0,0,0,2-.52A3.51,3.51,0,0,0,273.22,39a4.7,4.7,0,0,0,0-4.18,3.51,3.51,0,0,0-1.35-1.43,4,4,0,0,0-3.93,0,3.51,3.51,0,0,0-1.35,1.43,4.33,4.33,0,0,0-.49,2.09,4.26,4.26,0,0,0,.49,2.08,3.6,3.6,0,0,0,1.35,1.44A3.77,3.77,0,0,0,269.9,40.94Z"/><path class="cls-7" d="M278.63,41.49V26.05h.95v7.57a2.88,2.88,0,0,1,1.12-1.13,3.83,3.83,0,0,1,2-.47,3.65,3.65,0,0,1,1.83.44,2.83,2.83,0,0,1,1.17,1.27,4.68,4.68,0,0,1,.4,2.05v5.71h-.95V36a3.42,3.42,0,0,0-.7-2.33,2.49,2.49,0,0,0-2-.81,3,3,0,0,0-1.53.36,2.56,2.56,0,0,0-1,.95,2.4,2.4,0,0,0-.34,1.25v6.12Z"/><path class="cls-7" d="M291.88,41.78a1.76,1.76,0,0,1-1.46-.65,2.88,2.88,0,0,1-.52-1.84V33H289v-.71h.87V28.88h1v3.43h2.35V33h-2.35v6.24a2.12,2.12,0,0,0,.32,1.25,1,1,0,0,0,.89.43,1.53,1.53,0,0,0,1-.3l.24.76a2.07,2.07,0,0,1-.62.27A2.79,2.79,0,0,1,291.88,41.78Z"/><path class="cls-7" d="M301.31,41.49V26.69h1v7H311V26.69h1v14.8h-1v-7h-8.71v7Z"/><path class="cls-7" d="M320.77,41.78a5.15,5.15,0,0,1-2.56-.64,4.79,4.79,0,0,1-1.76-1.73,4.85,4.85,0,0,1-.64-2.46,4.92,4.92,0,0,1,.38-1.93,4.66,4.66,0,0,1,1-1.57,4.82,4.82,0,0,1,1.52-1.05,4.6,4.6,0,0,1,1.85-.38,4.67,4.67,0,0,1,2.35.6,4.51,4.51,0,0,1,1.69,1.64,4.93,4.93,0,0,1,.71,2.4v.15a.92.92,0,0,1,0,.16h-8.58a4,4,0,0,0,.52,2.06,3.67,3.67,0,0,0,1.44,1.43,4.23,4.23,0,0,0,2.09.51,4.33,4.33,0,0,0,2-.47,3.86,3.86,0,0,0,1.46-1.35l.72.4a4.57,4.57,0,0,1-1.76,1.65A5.32,5.32,0,0,1,320.77,41.78Zm-4-5.56h7.6a3.75,3.75,0,0,0-.65-1.74,3.89,3.89,0,0,0-1.34-1.21,3.84,3.84,0,0,0-5,1.2A3.79,3.79,0,0,0,316.79,36.22Z"/><path class="cls-7" d="M332.41,41.78a4.41,4.41,0,0,1-2.34-.63,4.58,4.58,0,0,1-1.64-1.74,5.53,5.53,0,0,1,0-5,4.63,4.63,0,0,1,1.64-1.73,4.68,4.68,0,0,1,4.71,0,3.88,3.88,0,0,1,1.58,1.75v-2.1h.95v9.18h-.95V39.37a4.47,4.47,0,0,1-1.62,1.77A4.37,4.37,0,0,1,332.41,41.78Zm.19-.84a3.76,3.76,0,0,0,2-.52A3.65,3.65,0,0,0,335.92,39a4.72,4.72,0,0,0,0-4.19,3.69,3.69,0,0,0-1.35-1.42,3.76,3.76,0,0,0-2-.52,3.81,3.81,0,0,0-2,.52,3.59,3.59,0,0,0-1.34,1.42,4.35,4.35,0,0,0-.5,2.1,4.27,4.27,0,0,0,.5,2.08,3.65,3.65,0,0,0,1.34,1.44A3.81,3.81,0,0,0,332.6,40.94Z"/><path class="cls-7" d="M341.32,41.49V32.31h.95v1.37a2.91,2.91,0,0,1,1.1-1.24A3,3,0,0,1,345,32a3.47,3.47,0,0,1,.79.08,2.79,2.79,0,0,1,.67.2l-.38.8a2.55,2.55,0,0,0-.59-.18,3.58,3.58,0,0,0-.64-.07,2.48,2.48,0,0,0-1.23.34,2.87,2.87,0,0,0-1,.87,2,2,0,0,0-.37,1.13v6.3Z"/><path class="cls-7" d="M351.15,41.78a1.76,1.76,0,0,1-1.46-.65,2.88,2.88,0,0,1-.52-1.84V33h-.87v-.71h.87V28.88h.95v3.43h2.35V33h-2.35v6.24a2.2,2.2,0,0,0,.31,1.25,1,1,0,0,0,.9.43,1.53,1.53,0,0,0,1-.3l.24.76a2.07,2.07,0,0,1-.62.27A2.79,2.79,0,0,1,351.15,41.78Z"/><path class="cls-7" d="M359.8,41.78a5.18,5.18,0,0,1-2.57-.64A4.72,4.72,0,0,1,354.84,37a4.92,4.92,0,0,1,.37-1.93,4.81,4.81,0,0,1,1-1.57,4.75,4.75,0,0,1,1.53-1.05,4.56,4.56,0,0,1,1.84-.38,4.64,4.64,0,0,1,2.35.6,4.53,4.53,0,0,1,1.7,1.64,4.92,4.92,0,0,1,.7,2.4V37h-8.59a4.12,4.12,0,0,0,.52,2.06,3.8,3.8,0,0,0,1.44,1.43,4.24,4.24,0,0,0,2.1.51,4.36,4.36,0,0,0,2-.47,3.86,3.86,0,0,0,1.46-1.35l.71.4a4.44,4.44,0,0,1-1.76,1.65A5.31,5.31,0,0,1,359.8,41.78Zm-4-5.56h7.59a3.74,3.74,0,0,0-.64-1.74,3.83,3.83,0,0,0-1.35-1.21,3.63,3.63,0,0,0-1.79-.44,3.71,3.71,0,0,0-1.82.44,3.88,3.88,0,0,0-1.35,1.2A3.78,3.78,0,0,0,355.82,36.22Z"/><path class="cls-7" d="M371.52,41.78a4.38,4.38,0,0,1-2.33-.63,4.68,4.68,0,0,1-1.65-1.74,5.57,5.57,0,0,1,0-5,4.55,4.55,0,0,1,1.64-1.73,4.45,4.45,0,0,1,2.35-.63,4.32,4.32,0,0,1,2.33.64,4.25,4.25,0,0,1,1.61,1.75V26.05h.95V41.49h-.95V39.37a4.33,4.33,0,0,1-1.62,1.77A4.43,4.43,0,0,1,371.52,41.78Zm.19-.84a3.79,3.79,0,0,0,2-.52A3.51,3.51,0,0,0,375,39a4.29,4.29,0,0,0,.49-2.08,4.34,4.34,0,0,0-.49-2.1,3.51,3.51,0,0,0-1.35-1.43,4,4,0,0,0-3.93,0,3.65,3.65,0,0,0-1.35,1.43,4.34,4.34,0,0,0-.49,2.1A4.22,4.22,0,0,0,368.4,39a3.6,3.6,0,0,0,1.35,1.44A3.75,3.75,0,0,0,371.71,40.94Z"/></g></g></g><g id="Joyful"><g id="Joyful-2" class="cls-1"><text class="cls-8" transform="translate(295.5 17.03)">Joyful</text></g></g><g id="Delightful"><g id="Delightful-2" class="cls-1"><text class="cls-9" transform="translate(130.18 34.15)">Delightful</text></g></g><g id="Easy_Going" data-name="Easy Going"><g id="Easy_Going-2" data-name="Easy Going-2" class="cls-1"><g class="cls-1"><path class="cls-10" d="M427.49,57.39V42.59h7.69V44.2h-5.86v5H435v1.59h-5.65v5h5.86v1.6Z"/><path class="cls-10" d="M442.47,57.68a4.39,4.39,0,0,1-2.32-.63,4.65,4.65,0,0,1-1.64-1.74,5.59,5.59,0,0,1,0-5,4.43,4.43,0,0,1,1.62-1.73,4.63,4.63,0,0,1,4.48-.12,3.78,3.78,0,0,1,1.5,1.44V48.21h1.74v9.18H446.1V55.67a4.3,4.3,0,0,1-1.55,1.48A4.18,4.18,0,0,1,442.47,57.68Zm.47-1.5a3.06,3.06,0,0,0,2.8-1.63,3.94,3.94,0,0,0,0-3.5,3.28,3.28,0,0,0-4.46-1.2,3,3,0,0,0-1.14,1.2,3.84,3.84,0,0,0,0,3.49,3,3,0,0,0,1.14,1.21A3.16,3.16,0,0,0,442.94,56.18Z"/><path class="cls-10" d="M453.89,57.68a4.07,4.07,0,0,1-2-.5,3.54,3.54,0,0,1-1.4-1.42l.83-1.08a3.73,3.73,0,0,0,1.15,1.24,2.62,2.62,0,0,0,1.44.44,2.06,2.06,0,0,0,.91-.2,1.56,1.56,0,0,0,.65-.57,1.59,1.59,0,0,0,.24-.88,1.17,1.17,0,0,0-.24-.78,2.21,2.21,0,0,0-.73-.49c-.32-.15-.72-.31-1.2-.5a9.4,9.4,0,0,1-1.11-.53,2.66,2.66,0,0,1-.88-.74,1.88,1.88,0,0,1-.35-1.16,2.26,2.26,0,0,1,.41-1.33,2.72,2.72,0,0,1,1.13-.92,3.86,3.86,0,0,1,1.63-.33,3.74,3.74,0,0,1,1.44.29,5,5,0,0,1,1.33.86l-.7,1.06a2.79,2.79,0,0,0-2.06-1,1.66,1.66,0,0,0-1.1.34,1.09,1.09,0,0,0-.43.9.9.9,0,0,0,.31.7,2.67,2.67,0,0,0,.78.49c.32.14.64.27,1,.4a10.84,10.84,0,0,1,1.35.6,2.45,2.45,0,0,1,.9.78,2.32,2.32,0,0,1,.32,1.29,2.76,2.76,0,0,1-1.7,2.67A4.54,4.54,0,0,1,453.89,57.68Z"/><path class="cls-10" d="M460.83,62.06l2.47-5.17-4.37-8.68h2l3.39,6.95,3-6.95h2l-6.52,13.85Z"/><path class="cls-10" d="M483,57.68a7,7,0,0,1-2.85-.59,7.15,7.15,0,0,1-2.32-1.64A7.61,7.61,0,0,1,476.3,53a8.06,8.06,0,0,1-.56-3,8.53,8.53,0,0,1,.5-2.89,7.49,7.49,0,0,1,1.46-2.45A7,7,0,0,1,480,43a7.43,7.43,0,0,1,3.12-.63,8.06,8.06,0,0,1,2.1.27,7.54,7.54,0,0,1,1.88.75,7.07,7.07,0,0,1,1.54,1.14l-.9,1.4a6,6,0,0,0-2-1.41,6.49,6.49,0,0,0-2.57-.52,5.52,5.52,0,0,0-2.32.47,5.14,5.14,0,0,0-1.71,1.31,5.76,5.76,0,0,0-1.06,1.91,7.18,7.18,0,0,0-.37,2.29,7,7,0,0,0,.41,2.42,6,6,0,0,0,1.15,1.93A5.19,5.19,0,0,0,481,55.56a5,5,0,0,0,2.11.45,5.27,5.27,0,0,0,3.35-1.18,4.26,4.26,0,0,0,1.1-1.36,3.77,3.77,0,0,0,.41-1.76v-.43h-5V49.84h6.85v1.6a5.82,5.82,0,0,1-.58,2.66,5.89,5.89,0,0,1-1.56,2,7.34,7.34,0,0,1-2.19,1.21A7.69,7.69,0,0,1,483,57.68Z"/><path class="cls-10" d="M497.33,57.68a5.55,5.55,0,0,1-2.63-.62,4.82,4.82,0,0,1-1.86-1.72,4.8,4.8,0,0,1,1.86-6.8,5.89,5.89,0,0,1,5.26,0,4.74,4.74,0,0,1,1.86,1.72,5.08,5.08,0,0,1,0,5.08A4.82,4.82,0,0,1,500,57.06,5.58,5.58,0,0,1,497.33,57.68Zm0-1.52a3.41,3.41,0,0,0,1.72-.43,3.05,3.05,0,0,0,1.2-1.19,3.68,3.68,0,0,0,0-3.49,3.09,3.09,0,0,0-1.2-1.18,3.68,3.68,0,0,0-3.45,0,3.19,3.19,0,0,0-1.21,1.18,3.68,3.68,0,0,0,0,3.49,3.14,3.14,0,0,0,1.21,1.19A3.39,3.39,0,0,0,497.34,56.16Z"/><path class="cls-10" d="M506.28,46.35a1,1,0,0,1-.54-.15,1.1,1.1,0,0,1-.4-.4,1,1,0,0,1-.15-.54,1,1,0,0,1,.15-.55,1.15,1.15,0,0,1,.4-.39,1,1,0,0,1,.54-.15,1,1,0,0,1,.55.15,1.21,1.21,0,0,1,.39.39,1,1,0,0,1,.15.55,1,1,0,0,1-.15.54,1.15,1.15,0,0,1-.39.4A1,1,0,0,1,506.28,46.35Zm-.87,11V48.21h1.74v9.18Z"/><path class="cls-10" d="M510.84,57.39V48.21h1.74v1.18a3.22,3.22,0,0,1,1.21-1,3.91,3.91,0,0,1,1.87-.42,3.75,3.75,0,0,1,1.85.44,3,3,0,0,1,1.2,1.28,4.26,4.26,0,0,1,.43,2v5.76H517.4V52a2.83,2.83,0,0,0-.62-2,2.21,2.21,0,0,0-1.74-.69,2.63,2.63,0,0,0-1.32.31,2.19,2.19,0,0,0-.85.83,2.15,2.15,0,0,0-.29,1.12v5.82Z"/><path class="cls-10" d="M526.81,62.33a6,6,0,0,1-3-.69,4.16,4.16,0,0,1-1.8-2l1.45-.68a3.06,3.06,0,0,0,1.31,1.36,4.12,4.12,0,0,0,2,.51,3.74,3.74,0,0,0,1.73-.39,2.94,2.94,0,0,0,1.19-1.1,3.26,3.26,0,0,0,.44-1.72v-2a4.26,4.26,0,0,1-3.64,2,4.3,4.3,0,0,1-2.3-.63,4.55,4.55,0,0,1-1.64-1.73A5.11,5.11,0,0,1,522,52.8a5.17,5.17,0,0,1,.6-2.51,4.52,4.52,0,0,1,1.63-1.73,4.37,4.37,0,0,1,2.36-.64,4.3,4.3,0,0,1,2.1.52,4,4,0,0,1,1.5,1.44V48.21h1.73v9.43a5,5,0,0,1-.59,2.52,3.94,3.94,0,0,1-1.74,1.61A6.26,6.26,0,0,1,526.81,62.33Zm.19-6.15a3.2,3.2,0,0,0,1.67-.43,3,3,0,0,0,1.14-1.2,3.56,3.56,0,0,0,.42-1.74,3.63,3.63,0,0,0-.42-1.76,3.13,3.13,0,0,0-1.14-1.2,3.42,3.42,0,0,0-3.32,0,3.09,3.09,0,0,0-1.15,1.2,3.75,3.75,0,0,0-.41,1.76,3.55,3.55,0,0,0,.41,1.74,3,3,0,0,0,1.14,1.2A3.16,3.16,0,0,0,527,56.18Z"/></g></g></g></g></g></g></svg>