<svg xmlns="http://www.w3.org/2000/svg" viewBox="0 0 1319.66 163.92"><defs><style>.cls-1,.cls-2,.cls-4,.cls-5,.cls-6,.cls-8,.cls-9{isolation:isolate;}.cls-2{font-size:35px;}.cls-2,.cls-9{fill:#009de0;}.cls-2,.cls-4{font-family:Oxygen-Bold, Oxygen;}.cls-2,.cls-4,.cls-8{font-weight:700;}.cls-3{letter-spacing:0em;}.cls-4{font-size:64px;fill:#0d2c54;}.cls-5{font-size:50px;font-family:CharisSIL, Charis SIL;}.cls-10,.cls-5{fill:#f6511d;}.cls-6{font-size:61px;font-family:CharisSIL-Italic, Charis SIL;font-style:italic;}.cls-6,.cls-7,.cls-8{fill:#ffb400;}.cls-8{font-size:68px;font-family:CharisSIL-Bold, Charis SIL;}.cls-9{font-size:59px;font-family:Oxygen-Regular, Oxygen;}</style></defs><g id="Layer_2" data-name="Layer 2"><g id="Layer_1-2" data-name="Layer 1"><g id="Belly-laughing_Funny" data-name="Belly-laughing Funny"><g id="Belly-laughing_Funny-2" data-name="Belly-laughing Funny-2" class="cls-1"><text class="cls-2" transform="translate(660.32 136.39)">Belly-laughing Fun<tspan class="cls-3" x="313.27" y="0">n</tspan><tspan x="334.62" y="0">y</tspan></text></g></g><g id="Laid_Back" data-name="Laid Back"><g id="Laid_Back-2" data-name="Laid Back-2" class="cls-1"><text class="cls-4" transform="translate(0 54.89)">Laid Back</text></g></g><g id="Thought_Provoking" data-name="Thought Provoking"><g id="Thought_Provoking-2" data-name="Thought Provoking-2" class="cls-1"><text class="cls-5" transform="translate(183.66 126.39)">Thought Provoking</text></g></g><g id="Soft"><g id="Soft-2" class="cls-1"><text class="cls-6" transform="translate(44.34 131.39)">Soft</text></g></g><g id="Light_Hearted" data-name="Light Hearted"><g id="Light_Hearted-2" data-name="Light Hearted-2" class="cls-1"><g class="cls-1"><path class="cls-7" d="M895.83,52.39V7h3V49.72h19.66v2.67Z"/><path class="cls-7" d="M929.63,18.65a1.91,1.91,0,0,1-1-.28,2.06,2.06,0,0,1-1-1.76,2,2,0,0,1,.28-1,2.16,2.16,0,0,1,.74-.73,2.08,2.08,0,0,1,2,0,2.21,2.21,0,0,1,.73.73,2.08,2.08,0,0,1,0,2,2.07,2.07,0,0,1-.73.74A1.9,1.9,0,0,1,929.63,18.65Zm-1.46,33.74V24.23h2.92V52.39Z"/><path class="cls-7" d="M955.56,67.51a17.47,17.47,0,0,1-8.88-2.1,13.11,13.11,0,0,1-5.45-6.09l2.53-1.1a10.66,10.66,0,0,0,4.53,5,14.16,14.16,0,0,0,7.3,1.87,13.68,13.68,0,0,0,6.14-1.36,10.37,10.37,0,0,0,4.32-4,11.73,11.73,0,0,0,1.58-6.27V45.87a13.32,13.32,0,0,1-12.1,7.4,13.49,13.49,0,0,1-7.16-1.94,13.92,13.92,0,0,1-5-5.32,15.72,15.72,0,0,1-1.86-7.7,15.75,15.75,0,0,1,1.84-7.71,13.85,13.85,0,0,1,5-5.31,14.21,14.21,0,0,1,14.35,0,13,13,0,0,1,4.92,5.39V24.23h2.92V53.16a15.59,15.59,0,0,1-1.87,8,11.8,11.8,0,0,1-5.24,4.79A18.29,18.29,0,0,1,955.56,67.51Zm.55-16.83a11.5,11.5,0,0,0,6-1.58,11.06,11.06,0,0,0,4.14-4.38,13.39,13.39,0,0,0,1.5-6.41,13.39,13.39,0,0,0-1.5-6.41,11.06,11.06,0,0,0-4.14-4.38,12.25,12.25,0,0,0-12.07,0A11.06,11.06,0,0,0,946,31.9a13.39,13.39,0,0,0-1.5,6.41A13.28,13.28,0,0,0,946,44.7a11.22,11.22,0,0,0,4.14,4.39A11.45,11.45,0,0,0,956.11,50.68Z"/><path class="cls-7" d="M982.87,52.39V5h2.91V28.25a9,9,0,0,1,3.45-3.46,11.62,11.62,0,0,1,6-1.44,11.14,11.14,0,0,1,5.61,1.33,8.73,8.73,0,0,1,3.58,3.91,14.47,14.47,0,0,1,1.23,6.28V52.39h-2.91v-17c0-3.11-.72-5.5-2.16-7.14a7.62,7.62,0,0,0-6.09-2.48,9.34,9.34,0,0,0-4.7,1.11,7.9,7.9,0,0,0-3,2.9,7.46,7.46,0,0,0-1.05,3.83V52.39Z"/><path class="cls-7" d="M1023.51,53.27a5.42,5.42,0,0,1-4.49-2,8.84,8.84,0,0,1-1.58-5.63V26.43h-2.67v-2.2h2.67V13.72h2.91V24.23h7.2v2.2h-7.2V45.54a6.52,6.52,0,0,0,1,3.84,3.18,3.18,0,0,0,2.75,1.33,4.65,4.65,0,0,0,2.94-.93l.75,2.33a6.85,6.85,0,0,1-1.93.84A8.53,8.53,0,0,1,1023.51,53.27Z"/><path class="cls-7" d="M1052.41,52.39V7h3V28.33h26.7V7h3V52.39h-3V31h-26.7V52.39Z"/><path class="cls-7" d="M1112.09,53.27a15.61,15.61,0,0,1-7.87-2,14.51,14.51,0,0,1-5.39-5.3,14.67,14.67,0,0,1-1.95-7.53,15.41,15.41,0,0,1,1.14-5.94,15.08,15.08,0,0,1,3.17-4.81,14.67,14.67,0,0,1,4.67-3.22,14,14,0,0,1,5.65-1.15,14.24,14.24,0,0,1,12.42,6.87,15.27,15.27,0,0,1,2.16,7.35v.48a4.4,4.4,0,0,1,0,.48h-26.32a12.4,12.4,0,0,0,1.6,6.32,11.34,11.34,0,0,0,4.41,4.36,12.84,12.84,0,0,0,6.42,1.58,13.1,13.1,0,0,0,6.2-1.45,11.67,11.67,0,0,0,4.47-4.13l2.2,1.24a13.83,13.83,0,0,1-5.4,5A16,16,0,0,1,1112.09,53.27Zm-12.21-17.05h23.29a11.67,11.67,0,0,0-2-5.34,11.87,11.87,0,0,0-4.12-3.69,11.33,11.33,0,0,0-5.5-1.37,11.59,11.59,0,0,0-9.71,5.05A11.75,11.75,0,0,0,1099.88,36.22Z"/><path class="cls-7" d="M1147.76,53.27a13.52,13.52,0,0,1-7.17-1.94,14.07,14.07,0,0,1-5-5.32,15.72,15.72,0,0,1-1.86-7.7,15.76,15.76,0,0,1,1.85-7.71,13.85,13.85,0,0,1,5-5.31,13.58,13.58,0,0,1,7.2-1.94A13.86,13.86,0,0,1,1155,25.3a12.16,12.16,0,0,1,4.84,5.39V24.23h2.91V52.39h-2.91V45.87a13.59,13.59,0,0,1-5,5.43A13.25,13.25,0,0,1,1147.76,53.27Zm.6-2.59a11.44,11.44,0,0,0,6-1.58,11.08,11.08,0,0,0,4.12-4.38,13.39,13.39,0,0,0,1.5-6.41,13.35,13.35,0,0,0-1.5-6.42,11.12,11.12,0,0,0-4.12-4.37,12.25,12.25,0,0,0-12.07,0,11.1,11.1,0,0,0-4.14,4.37,13.24,13.24,0,0,0-1.52,6.42,13.18,13.18,0,0,0,1.52,6.39,11.22,11.22,0,0,0,4.14,4.39A11.41,11.41,0,0,0,1148.36,50.68Z"/><path class="cls-7" d="M1175.09,52.39V24.23H1178v4.21a9,9,0,0,1,3.35-3.81,9.31,9.31,0,0,1,5-1.28,13,13,0,0,1,2.41.23,10.41,10.41,0,0,1,2.07.62l-1.18,2.48a7.17,7.17,0,0,0-1.8-.58,10.26,10.26,0,0,0-2-.19,7.47,7.47,0,0,0-3.78,1,9,9,0,0,0-2.93,2.67,6,6,0,0,0-1.12,3.47V52.39Z"/><path class="cls-7" d="M1205.23,53.27a5.45,5.45,0,0,1-4.5-2,8.9,8.9,0,0,1-1.58-5.63V26.43h-2.66v-2.2h2.66V13.72h2.92V24.23h7.2v2.2h-7.2V45.54a6.52,6.52,0,0,0,1,3.84,3.18,3.18,0,0,0,2.75,1.33,4.65,4.65,0,0,0,2.94-.93l.75,2.33a7,7,0,0,1-1.93.84A8.53,8.53,0,0,1,1205.23,53.27Z"/><path class="cls-7" d="M1231.74,53.27a15.55,15.55,0,0,1-7.86-2,14.36,14.36,0,0,1-5.39-5.3,14.58,14.58,0,0,1-2-7.53,15.41,15.41,0,0,1,1.14-5.94,15.08,15.08,0,0,1,3.17-4.81,14.67,14.67,0,0,1,4.67-3.22,14,14,0,0,1,5.65-1.15,14.38,14.38,0,0,1,7.22,1.83,14.19,14.19,0,0,1,5.2,5,15.27,15.27,0,0,1,2.16,7.35v.48a4.4,4.4,0,0,1,0,.48h-26.32a12.4,12.4,0,0,0,1.6,6.32,11.34,11.34,0,0,0,4.41,4.36,12.84,12.84,0,0,0,6.42,1.58,13.1,13.1,0,0,0,6.2-1.45,11.6,11.6,0,0,0,4.47-4.13l2.2,1.24a13.83,13.83,0,0,1-5.4,5A16,16,0,0,1,1231.74,53.27Zm-12.21-17.05h23.29a11.68,11.68,0,0,0-6.1-9,11.3,11.3,0,0,0-5.5-1.37,11.59,11.59,0,0,0-9.71,5.05A11.75,11.75,0,0,0,1219.53,36.22Z"/><path class="cls-7" d="M1267.68,53.27a13.49,13.49,0,0,1-7.16-1.94,13.92,13.92,0,0,1-5-5.32,15.72,15.72,0,0,1-1.86-7.7,15.75,15.75,0,0,1,1.84-7.71,13.89,13.89,0,0,1,5-5.31,13.64,13.64,0,0,1,7.21-1.94,13.44,13.44,0,0,1,7.15,1.95,13,13,0,0,1,4.92,5.39V5h2.92V52.39h-2.92V45.87a13.32,13.32,0,0,1-12.1,7.4Zm.58-2.59a11.5,11.5,0,0,0,6-1.58,11.06,11.06,0,0,0,4.14-4.38,13.33,13.33,0,0,0,1.5-6.38,13.46,13.46,0,0,0-1.5-6.44,11.06,11.06,0,0,0-4.14-4.38,12.21,12.21,0,0,0-12,0,11.16,11.16,0,0,0-4.15,4.38,13.35,13.35,0,0,0-1.51,6.44,13.22,13.22,0,0,0,1.5,6.36,11.22,11.22,0,0,0,4.14,4.39A11.42,11.42,0,0,0,1268.26,50.68Z"/></g></g></g><g id="Joyful"><g id="Joyful-2" class="cls-1"><text class="cls-8" transform="translate(649.32 71.39)">Joyful</text></g></g><g id="Delightful"><g id="Delightful-2" class="cls-1"><text class="cls-9" transform="translate(337.32 58.39)">Delightful</text></g></g><g id="Easy_Going" data-name="Easy Going"><g id="Easy_Going-2" data-name="Easy Going-2" class="cls-1"><g class="cls-1"><path class="cls-10" d="M1063.56,122.39V86.09h18.85V90H1068v12.21h13.86v3.91H1068v12.3h14.38v3.94Z"/><path class="cls-10" d="M1100.3,123.09a10.66,10.66,0,0,1-5.69-1.55,11.19,11.19,0,0,1-4-4.25,13.62,13.62,0,0,1,0-12.31,11.06,11.06,0,0,1,4-4.26,11.39,11.39,0,0,1,11-.29,9.09,9.09,0,0,1,3.67,3.55V99.86h4.27v22.53h-4.27v-4.22a10.7,10.7,0,0,1-3.79,3.63A10.28,10.28,0,0,1,1100.3,123.09Zm1.14-3.67a7.76,7.76,0,0,0,4.08-1.07,7.64,7.64,0,0,0,2.79-2.93,9.62,9.62,0,0,0,0-8.58,7.59,7.59,0,0,0-2.79-2.94,8.29,8.29,0,0,0-8.15,0,7.62,7.62,0,0,0-2.8,2.94,9.49,9.49,0,0,0,0,8.56,7.58,7.58,0,0,0,2.8,2.95A7.8,7.8,0,0,0,1101.44,119.42Z"/><path class="cls-10" d="M1128.31,123.09a10,10,0,0,1-5-1.22,8.92,8.92,0,0,1-3.44-3.48l2-2.64a9.05,9.05,0,0,0,2.81,3,6.35,6.35,0,0,0,3.54,1.08,5.14,5.14,0,0,0,2.24-.48,4,4,0,0,0,1.59-1.4,3.86,3.86,0,0,0,.6-2.17,2.8,2.8,0,0,0-.61-1.9,5.1,5.1,0,0,0-1.78-1.22c-.79-.35-1.77-.76-2.94-1.21a26.28,26.28,0,0,1-2.73-1.3,6.69,6.69,0,0,1-2.16-1.84,4.48,4.48,0,0,1-.85-2.82,5.54,5.54,0,0,1,1-3.28,6.78,6.78,0,0,1,2.76-2.25,9.48,9.48,0,0,1,4-.81,8.94,8.94,0,0,1,3.54.73,11.74,11.74,0,0,1,3.25,2.09l-1.71,2.59a6.89,6.89,0,0,0-5.06-2.42,4.11,4.11,0,0,0-2.71.85,2.68,2.68,0,0,0-1,2.19,2.24,2.24,0,0,0,.75,1.72,6.25,6.25,0,0,0,1.91,1.2c.78.34,1.58.67,2.42,1a28.53,28.53,0,0,1,3.31,1.46,5.87,5.87,0,0,1,2.21,1.92,5.58,5.58,0,0,1,.79,3.16,7.08,7.08,0,0,1-1.09,4,6.91,6.91,0,0,1-3.06,2.56A11.14,11.14,0,0,1,1128.31,123.09Z"/><path class="cls-10" d="M1145.33,133.83l6.05-12.67-10.71-21.3h4.86l8.32,17,7.45-17h4.87l-16,34Z"/><path class="cls-10" d="M1199.74,123.09a17.11,17.11,0,0,1-7-1.44,17.57,17.57,0,0,1-5.67-4,18.86,18.86,0,0,1-3.8-6,19.72,19.72,0,0,1-1.36-7.38,20.6,20.6,0,0,1,1.23-7.08,18.55,18.55,0,0,1,3.58-6,17.05,17.05,0,0,1,5.74-4.18,18.17,18.17,0,0,1,7.64-1.54,20.38,20.38,0,0,1,5.16.65,19.23,19.23,0,0,1,4.61,1.84,17.53,17.53,0,0,1,3.78,2.81l-2.22,3.43a14.6,14.6,0,0,0-5-3.46,15.78,15.78,0,0,0-6.3-1.29,13.2,13.2,0,0,0-5.68,1.17,12.33,12.33,0,0,0-4.2,3.21,14.33,14.33,0,0,0-2.6,4.69,17.27,17.27,0,0,0-.9,5.61,16.91,16.91,0,0,0,1,5.92,14.53,14.53,0,0,0,2.8,4.75,12.7,12.7,0,0,0,4.2,3.13,12.15,12.15,0,0,0,5.17,1.11,13.09,13.09,0,0,0,4.38-.75,12.68,12.68,0,0,0,3.84-2.14,10.49,10.49,0,0,0,2.71-3.33,9.35,9.35,0,0,0,1-4.32v-1h-12.24v-3.54h16.81v3.91a14.06,14.06,0,0,1-5.27,11.34,17.25,17.25,0,0,1-5.36,3A18.38,18.38,0,0,1,1199.74,123.09Z"/><path class="cls-10" d="M1234.85,123.09a13.65,13.65,0,0,1-6.46-1.51,11.73,11.73,0,0,1-4.55-4.23,12.39,12.39,0,0,1,0-12.46,11.68,11.68,0,0,1,4.55-4.21,14.49,14.49,0,0,1,12.92,0,11.68,11.68,0,0,1,4.55,4.21,12.39,12.39,0,0,1,0,12.46,11.73,11.73,0,0,1-4.55,4.23A13.65,13.65,0,0,1,1234.85,123.09Zm0-3.71a8.51,8.51,0,0,0,4.23-1.06,7.66,7.66,0,0,0,2.94-2.93,9,9,0,0,0,0-8.54,7.78,7.78,0,0,0-2.94-2.92,9.07,9.07,0,0,0-8.47,0,7.8,7.8,0,0,0-3,2.92,9,9,0,0,0,0,8.54,7.69,7.69,0,0,0,3,2.93A8.5,8.5,0,0,0,1234.87,119.38Z"/><path class="cls-10" d="M1256.81,95.31a2.51,2.51,0,0,1-1.34-.37,2.7,2.7,0,0,1-1-1,2.54,2.54,0,0,1-.37-1.35,2.46,2.46,0,0,1,.37-1.34,2.94,2.94,0,0,1,1-1,2.67,2.67,0,0,1,2.68,0,3,3,0,0,1,.95,1,2.46,2.46,0,0,1,.37,1.34,2.54,2.54,0,0,1-.37,1.35,2.76,2.76,0,0,1-.95,1A2.48,2.48,0,0,1,1256.81,95.31Zm-2.14,27.08V99.86h4.27v22.53Z"/><path class="cls-10" d="M1268,122.39V99.86h4.27v2.91a8,8,0,0,1,3-2.58,9.61,9.61,0,0,1,4.6-1,9,9,0,0,1,4.53,1.09,7.4,7.4,0,0,1,3,3.13,10.73,10.73,0,0,1,1,4.89v14.12h-4.27V109.12a7.06,7.06,0,0,0-1.51-4.86,5.45,5.45,0,0,0-4.27-1.69,6.54,6.54,0,0,0-3.25.76,5.39,5.39,0,0,0-2.08,2,5.47,5.47,0,0,0-.72,2.76v14.28Z"/><path class="cls-10" d="M1307.16,134.49a15,15,0,0,1-7.35-1.67,10.23,10.23,0,0,1-4.42-4.89l3.54-1.67a7.54,7.54,0,0,0,3.24,3.33,10,10,0,0,0,5,1.25,9.22,9.22,0,0,0,4.24-1,7.11,7.11,0,0,0,2.92-2.7,8,8,0,0,0,1.07-4.21v-4.81a10.31,10.31,0,0,1-8.91,4.92,10.61,10.61,0,0,1-5.65-1.54,11.19,11.19,0,0,1-4-4.24,13.5,13.5,0,0,1,0-12.33,11.19,11.19,0,0,1,4-4.26,10.84,10.84,0,0,1,5.78-1.56,10.57,10.57,0,0,1,5.15,1.27,9.42,9.42,0,0,1,3.67,3.55V99.86h4.27V123a12.39,12.39,0,0,1-1.46,6.18,9.69,9.69,0,0,1-4.26,3.94A15.32,15.32,0,0,1,1307.16,134.49Zm.46-15.07a7.92,7.92,0,0,0,4.11-1.07,7.52,7.52,0,0,0,2.8-2.93,9.55,9.55,0,0,0,0-8.57,7.58,7.58,0,0,0-2.8-2.95,8.28,8.28,0,0,0-8.14,0,7.53,7.53,0,0,0-2.81,2.95,9.55,9.55,0,0,0,0,8.57,7.56,7.56,0,0,0,2.79,2.93A7.8,7.8,0,0,0,1307.62,119.42Z"/></g></g></g></g></g></svg>