<svg xmlns="http://www.w3.org/2000/svg" viewBox="0 0 11.6 11.6"><defs><style>.cls-1{fill:#fff;}</style></defs><g id="Layer_2" data-name="Layer 2"><g id="Layer_1-2" data-name="Layer 1"><path id="facebook-square-brands" class="cls-1" d="M10.36,0H1.24A1.25,1.25,0,0,0,0,1.24v9.12A1.24,1.24,0,0,0,1.24,11.6H4.8V7.66H3.17V5.8H4.8V4.39a2.27,2.27,0,0,1,2.42-2.5A9.76,9.76,0,0,1,8.66,2V3.59H7.85a.93.93,0,0,0-1,1V5.8H8.59L8.3,7.66H6.8V11.6h3.56a1.23,1.23,0,0,0,1.24-1.24h0V1.24A1.24,1.24,0,0,0,10.36,0Z"/></g></g></svg>