<svg xmlns="http://www.w3.org/2000/svg" viewBox="0 0 11.6 11.6"><defs><style>.cls-1{fill:#fff;}</style></defs><g id="Layer_2" data-name="Layer 2"><g id="Layer_1-2" data-name="Layer 1"><path id="instagram-square-brands" class="cls-1" d="M5.8,4.42A1.38,1.38,0,1,0,7.18,5.8,1.38,1.38,0,0,0,5.8,4.42ZM9,3.36a1.4,1.4,0,0,0-.79-.79A9.37,9.37,0,0,0,5.8,2.4a9,9,0,0,0-2.44.17,1.4,1.4,0,0,0-.79.79A9.37,9.37,0,0,0,2.4,5.8a9.37,9.37,0,0,0,.17,2.44A1.4,1.4,0,0,0,3.36,9,9,9,0,0,0,5.8,9.2,8.93,8.93,0,0,0,8.24,9,1.4,1.4,0,0,0,9,8.24,9,9,0,0,0,9.2,5.8,9,9,0,0,0,9,3.36ZM5.8,7.92A2.12,2.12,0,1,1,7.92,5.81,2.12,2.12,0,0,1,5.8,7.92ZM8,4.09a.51.51,0,0,1-.49-.5A.5.5,0,0,1,8,3.1a.49.49,0,0,1,.49.49.47.47,0,0,1-.15.35A.51.51,0,0,1,8,4.09ZM10.36,0H1.24A1.25,1.25,0,0,0,0,1.24v9.12A1.24,1.24,0,0,0,1.24,11.6h9.12a1.23,1.23,0,0,0,1.24-1.24h0V1.24A1.24,1.24,0,0,0,10.36,0ZM9.92,7.51a2.5,2.5,0,0,1-.67,1.74,2.5,2.5,0,0,1-1.74.67c-.68,0-2.73,0-3.42,0a2.48,2.48,0,0,1-1.73-.67,2.5,2.5,0,0,1-.67-1.74c0-.68,0-2.73,0-3.42a2.48,2.48,0,0,1,.67-1.73,2.48,2.48,0,0,1,1.73-.67c.69,0,2.74,0,3.42,0a2.5,2.5,0,0,1,1.74.67A2.48,2.48,0,0,1,9.92,4.1C10,4.78,10,6.83,9.92,7.51Z"/></g></g></svg>