<svg xmlns="http://www.w3.org/2000/svg" viewBox="0 0 11.6 11.6"><defs><style>.cls-1{fill:#fff;}</style></defs><g id="Layer_2" data-name="Layer 2"><g id="Layer_1-2" data-name="Layer 1"><path id="twitter-square-brands" class="cls-1" d="M10.36,0H1.24A1.25,1.25,0,0,0,0,1.24v9.12A1.24,1.24,0,0,0,1.24,11.6h9.12a1.23,1.23,0,0,0,1.24-1.24V1.24A1.24,1.24,0,0,0,10.36,0ZM9.09,4.11a1.7,1.7,0,0,1,0,.22A4.83,4.83,0,0,1,1.66,8.4a1.85,1.85,0,0,0,.41,0A3.39,3.39,0,0,0,4.18,7.7,1.7,1.7,0,0,1,2.59,6.52a1.77,1.77,0,0,0,.76,0A1.7,1.7,0,0,1,2,4.82v0A1.75,1.75,0,0,0,2.76,5,1.72,1.72,0,0,1,2,3.6a1.61,1.61,0,0,1,.24-.85,4.81,4.81,0,0,0,3.5,1.77A1.7,1.7,0,0,1,8.63,3a3.22,3.22,0,0,0,1.08-.41A1.73,1.73,0,0,1,9,3.5a3.34,3.34,0,0,0,1-.27A3.39,3.39,0,0,1,9.09,4.11Z"/></g></g></svg>